<svg xmlns="http://www.w3.org/2000/svg" xmlns:xlink="http://www.w3.org/1999/xlink" width="48" zoomAndPan="magnify" viewBox="0 0 36 36.000001" height="48" preserveAspectRatio="xMidYMid meet" version="1.0"><defs><g/><clipPath id="a9c349a094"><path d="M 0.488281 0 L 35.511719 0 L 35.511719 35.027344 L 0.488281 35.027344 Z M 0.488281 0 " clip-rule="nonzero"/></clipPath><clipPath id="5dd7321c40"><path d="M 0.488281 3 L 14 3 L 14 17 L 0.488281 17 Z M 0.488281 3 " clip-rule="nonzero"/></clipPath><clipPath id="8895a4ccc0"><path d="M 0.488281 5 L 35.511719 5 L 35.511719 35.027344 L 0.488281 35.027344 Z M 0.488281 5 " clip-rule="nonzero"/></clipPath><clipPath id="9db4115689"><path d="M 24 14 L 35.511719 14 L 35.511719 29 L 24 29 Z M 24 14 " clip-rule="nonzero"/></clipPath></defs><g clip-path="url(#a9c349a094)"><path fill="#ffffff" d="M 0.488281 0 L 35.511719 0 L 35.511719 35.027344 L 0.488281 35.027344 Z M 0.488281 0 " fill-opacity="1" fill-rule="nonzero"/><path fill="#000000" d="M 0.488281 0 L 35.511719 0 L 35.511719 35.027344 L 0.488281 35.027344 Z M 0.488281 0 " fill-opacity="1" fill-rule="nonzero"/></g><g clip-path="url(#5dd7321c40)"><g fill="#00bf63" fill-opacity="1"><g transform="translate(-0.347436, 15.899735)"><g><path d="M 10.5 -7.703125 C 10.1875 -8.960938 9.414062 -9.59375 8.1875 -9.59375 C 7.53125 -9.59375 6.914062 -9.378906 6.34375 -8.953125 C 5.769531 -8.535156 5.316406 -7.976562 4.984375 -7.28125 C 4.648438 -6.582031 4.484375 -5.867188 4.484375 -5.140625 C 4.484375 -4.242188 4.71875 -3.519531 5.1875 -2.96875 C 5.664062 -2.414062 6.300781 -2.140625 7.09375 -2.140625 C 7.820312 -2.140625 8.429688 -2.320312 8.921875 -2.6875 C 9.410156 -3.050781 9.734375 -3.554688 9.890625 -4.203125 L 7.375 -4.203125 L 7.765625 -6.625 L 13.890625 -6.625 C 13.617188 -4.96875 13.160156 -3.660156 12.515625 -2.703125 C 11.867188 -1.742188 11.050781 -0.988281 10.0625 -0.4375 C 9.070312 0.113281 7.941406 0.390625 6.671875 0.390625 C 5.035156 0.390625 3.722656 -0.0664062 2.734375 -0.984375 C 1.742188 -1.910156 1.25 -3.144531 1.25 -4.6875 C 1.25 -6.039062 1.566406 -7.300781 2.203125 -8.46875 C 2.835938 -9.632812 3.734375 -10.554688 4.890625 -11.234375 C 6.046875 -11.910156 7.34375 -12.25 8.78125 -12.25 C 11.289062 -12.25 12.898438 -11.144531 13.609375 -8.9375 Z M 10.5 -7.703125 "/></g></g></g></g><g fill="#00bf63" fill-opacity="1"><g transform="translate(11.229864, 15.899735)"><g><path d="M 5.90625 -11.859375 L 4.921875 -5.59375 C 4.828125 -5.03125 4.78125 -4.570312 4.78125 -4.21875 C 4.78125 -3.613281 4.90625 -3.15625 5.15625 -2.84375 C 5.414062 -2.539062 5.863281 -2.390625 6.5 -2.390625 C 7.257812 -2.390625 7.84375 -2.640625 8.25 -3.140625 C 8.65625 -3.640625 8.9375 -4.421875 9.09375 -5.484375 L 10.078125 -11.859375 L 13.171875 -11.859375 L 12.09375 -5.03125 C 11.882812 -3.644531 11.523438 -2.585938 11.015625 -1.859375 C 10.503906 -1.140625 9.816406 -0.597656 8.953125 -0.234375 C 8.097656 0.128906 7.140625 0.3125 6.078125 0.3125 C 4.628906 0.3125 3.515625 0 2.734375 -0.625 C 1.960938 -1.25 1.578125 -2.15625 1.578125 -3.34375 C 1.578125 -3.570312 1.585938 -3.816406 1.609375 -4.078125 C 1.628906 -4.335938 2.03125 -6.929688 2.8125 -11.859375 Z M 5.90625 -11.859375 "/></g></g></g><g fill="#00bf63" fill-opacity="1"><g transform="translate(21.800408, 15.899735)"><g><path d="M 7.34375 -11.859375 C 8.300781 -11.859375 9.046875 -11.664062 9.578125 -11.28125 C 10.117188 -10.90625 10.390625 -10.328125 10.390625 -9.546875 C 10.390625 -7.984375 9.804688 -6.921875 8.640625 -6.359375 L 8.640625 -6.328125 C 9.972656 -6.148438 10.640625 -5.390625 10.640625 -4.046875 C 10.640625 -2.773438 10.207031 -1.78125 9.34375 -1.0625 C 8.476562 -0.351562 7.3125 0 5.84375 0 L 1 0 L 2.875 -11.859375 Z M 5.59375 -9.5 L 5.234375 -7.203125 L 5.65625 -7.203125 C 6.84375 -7.203125 7.4375 -7.671875 7.4375 -8.609375 C 7.4375 -8.910156 7.320312 -9.132812 7.09375 -9.28125 C 6.863281 -9.425781 6.472656 -9.5 5.921875 -9.5 Z M 4.46875 -2.359375 L 5.15625 -2.359375 C 6.03125 -2.359375 6.644531 -2.488281 7 -2.75 C 7.351562 -3.007812 7.53125 -3.378906 7.53125 -3.859375 C 7.53125 -4.234375 7.394531 -4.5 7.125 -4.65625 C 6.851562 -4.820312 6.390625 -4.90625 5.734375 -4.90625 L 4.859375 -4.90625 Z M 4.46875 -2.359375 "/></g></g></g><g clip-path="url(#8895a4ccc0)"><path stroke-linecap="butt" transform="matrix(0.324014, 0, 0, 0.324014, 0.824418, 11.155066)" fill="none" stroke-linejoin="miter" d="M 32.64653 12.794872 L 31.248055 21.64384 L 18.830567 21.64384 L 17.757599 28.370984 L 29.548186 28.370984 L 28.161767 37.219951 L 16.371181 37.219951 L 15.24999 44.152045 L 27.679534 44.152045 L 26.293116 53.001012 L 3.411181 53.001012 L 9.764595 12.794872 Z M 48.150307 12.794872 L 52.960577 34.278333 L 64.956112 12.794872 L 75.348224 12.794872 L 75.095052 53.001012 L 64.642661 53.001012 L 65.378065 29.853849 L 65.281619 29.853849 L 51.947888 53.001012 L 47.776577 53.001012 L 42.230902 29.853849 L 42.1224 29.853849 L 35.09386 53.001012 L 24.689693 53.001012 L 37.866697 12.794872 Z M 94.010624 11.721905 C 98.31455 11.721905 102.353247 12.831039 106.114661 15.037253 L 100.677489 23.126705 C 98.796782 21.3545 96.626736 20.46237 94.179405 20.46237 C 92.901489 20.46237 91.732075 20.824044 90.683219 21.559449 C 89.634363 22.282798 89.115963 23.186984 89.115963 24.247895 C 89.115963 25.031523 89.489694 25.718705 90.237154 26.30944 C 90.984615 26.900175 92.346922 27.478854 94.336131 28.045477 C 97.036633 28.853216 98.989675 29.6489 100.195257 30.408416 C 101.412894 31.179989 102.353247 32.120342 103.016317 33.241533 C 103.703499 34.350668 104.041061 35.749142 104.041061 37.4249 C 104.041061 39.836063 103.414159 42.403952 102.17241 45.104454 C 100.930661 47.804956 98.893229 49.962947 96.072168 51.56637 C 93.239052 53.169794 89.887536 54.001645 86.017619 54.061924 C 81.038568 54.061924 76.565861 52.542891 72.575386 49.480714 L 78.386289 41.041645 C 81.159126 43.826538 84.02841 45.212956 86.982084 45.212956 C 88.609619 45.212956 89.983982 44.791003 91.105173 43.93504 C 92.226363 43.079077 92.792987 41.994054 92.792987 40.67997 C 92.792987 38.968045 91.081061 37.653961 87.669266 36.737719 C 83.546177 35.604472 80.881842 34.386835 79.664205 33.096863 C 78.458624 31.794835 77.855833 30.058798 77.855833 27.888751 C 77.855833 23.331654 79.411033 19.50996 82.509377 16.39956 C 85.631833 13.28916 89.465582 11.721905 94.010624 11.721905 Z M 94.010624 11.721905 " stroke="#000000" stroke-width="5.399997" stroke-opacity="1" stroke-miterlimit="4"/></g><g fill="#ffffff" fill-opacity="1"><g transform="translate(0.824418, 28.327797)"><g><path d="M 10.578125 -13.03125 L 10.125 -10.15625 L 6.09375 -10.15625 L 5.75 -7.984375 L 9.578125 -7.984375 L 9.125 -5.109375 L 5.3125 -5.109375 L 4.9375 -2.875 L 8.96875 -2.875 L 8.515625 0 L 1.109375 0 L 3.15625 -13.03125 Z M 10.578125 -13.03125 "/></g></g></g><g fill="#ffffff" fill-opacity="1"><g transform="translate(8.49612, 28.327797)"><g><path d="M 7.9375 -13.03125 L 9.484375 -6.0625 L 13.375 -13.03125 L 16.75 -13.03125 L 16.65625 0 L 13.265625 0 L 13.515625 -7.5 L 13.484375 -7.5 L 9.15625 0 L 7.8125 0 L 6.015625 -7.5 L 5.984375 -7.5 L 3.703125 0 L 0.328125 0 L 4.59375 -13.03125 Z M 7.9375 -13.03125 "/></g></g></g><g clip-path="url(#9db4115689)"><g fill="#ffffff" fill-opacity="1"><g transform="translate(23.64964, 28.327797)"><g><path d="M 7.640625 -13.375 C 9.035156 -13.375 10.34375 -13.015625 11.5625 -12.296875 L 9.796875 -9.671875 C 9.179688 -10.253906 8.476562 -10.546875 7.6875 -10.546875 C 7.269531 -10.546875 6.890625 -10.425781 6.546875 -10.1875 C 6.210938 -9.945312 6.046875 -9.65625 6.046875 -9.3125 C 6.046875 -9.0625 6.164062 -8.835938 6.40625 -8.640625 C 6.65625 -8.453125 7.097656 -8.269531 7.734375 -8.09375 C 8.617188 -7.820312 9.253906 -7.5625 9.640625 -7.3125 C 10.035156 -7.070312 10.34375 -6.769531 10.5625 -6.40625 C 10.78125 -6.039062 10.890625 -5.585938 10.890625 -5.046875 C 10.890625 -4.265625 10.6875 -3.4375 10.28125 -2.5625 C 9.875 -1.6875 9.210938 -0.988281 8.296875 -0.46875 C 7.390625 0.0507812 6.304688 0.320312 5.046875 0.34375 C 3.429688 0.34375 1.976562 -0.148438 0.6875 -1.140625 L 2.578125 -3.875 C 3.472656 -2.96875 4.398438 -2.515625 5.359375 -2.515625 C 5.890625 -2.515625 6.332031 -2.65625 6.6875 -2.9375 C 7.050781 -3.21875 7.234375 -3.566406 7.234375 -3.984375 C 7.234375 -4.546875 6.679688 -4.972656 5.578125 -5.265625 C 4.242188 -5.640625 3.378906 -6.035156 2.984375 -6.453125 C 2.597656 -6.867188 2.40625 -7.429688 2.40625 -8.140625 C 2.40625 -9.609375 2.90625 -10.847656 3.90625 -11.859375 C 4.914062 -12.867188 6.160156 -13.375 7.640625 -13.375 Z M 7.640625 -13.375 "/></g></g></g></g></svg>